<svg width="32" height="32" viewBox="0 0 42 42" fill="none" xmlns="http://www.w3.org/2000/svg">
  <rect x="0" y="0" width="42" height="42" rx="7" fill="#167ADF"/>
  <path opacity="0.5" d="M30.5 30a8.501 8.501 0 01-6.01-14.51A8.5 8.5 0 0130.5 13v4.855a3.645 3.645 0 000 7.29V30z" fill="#fff" stroke="#fff" stroke-width="3.7" stroke-linecap="round"/>
  <path fill-rule="evenodd" clip-rule="evenodd" d="M26.54 21.61c-.058-5.446-4.52-9.812-9.965-9.753-5.444.06-9.81 4.52-9.752 9.966.06 5.445 4.521 9.81 9.966 9.752 5.445-.06 9.81-4.521 9.752-9.966zm-9.823 3.475a3.334 3.334 0 100-6.667 3.334 3.334 0 000 6.667z" fill="#fff"/>
</svg>
